<?xml version="1.0" encoding="UTF-8" standalone="no"?>
<svg
   xmlns:dc="http://purl.org/dc/elements/1.1/"
   xmlns:cc="http://creativecommons.org/ns#"
   xmlns:rdf="http://www.w3.org/1999/02/22-rdf-syntax-ns#"
   xmlns:svg="http://www.w3.org/2000/svg"
   xmlns="http://www.w3.org/2000/svg"
   xmlns:xlink="http://www.w3.org/1999/xlink"
   xmlns:sodipodi="http://sodipodi.sourceforge.net/DTD/sodipodi-0.dtd"
   xmlns:inkscape="http://www.inkscape.org/namespaces/inkscape"
   width="201.43755mm"
   height="150.93639mm"
   viewBox="0 0 201.43755 150.93639"
   version="1.1"
   id="svg8"
   sodipodi:docname="crosta nera.svg"
   inkscape:version="1.0rc1 (09960d6f05, 2020-04-09)">
  <defs
     id="defs2">
    <inkscape:path-effect
       effect="spiro"
       id="path-effect859"
       is_visible="true"
       lpeversion="1" />
  </defs>
  <sodipodi:namedview
     fit-margin-bottom="0"
     fit-margin-right="0"
     fit-margin-left="0"
     fit-margin-top="0"
     id="base"
     pagecolor="#ffffff"
     bordercolor="#666666"
     borderopacity="1.0"
     inkscape:pageopacity="0.0"
     inkscape:pageshadow="2"
     inkscape:zoom="0.7"
     inkscape:cx="658.76467"
     inkscape:cy="356.16129"
     inkscape:document-units="mm"
     inkscape:current-layer="layer1"
     inkscape:document-rotation="0"
     showgrid="false"
     inkscape:window-width="1920"
     inkscape:window-height="1009"
     inkscape:window-x="-8"
     inkscape:window-y="-8"
     inkscape:window-maximized="1" />
  <metadata
     id="metadata5">
    <rdf:RDF>
      <cc:Work
         rdf:about="">
        <dc:format>image/svg+xml</dc:format>
        <dc:type
           rdf:resource="http://purl.org/dc/dcmitype/StillImage" />
        <dc:title></dc:title>
      </cc:Work>
    </rdf:RDF>
  </metadata>
  <g
     transform="translate(-4.1127495,-32.382059)"
     inkscape:label="Vrstva 1"
     inkscape:groupmode="layer"
     id="layer1">
    <path
       inkscape:export-ydpi="25.241035"
       inkscape:export-xdpi="25.241035"
       style="fill:#000000;stroke-width:0.24877"
       d="m 94.129609,162.9403 c -10.107658,-1.15946 -18.166743,-3.89942 -27.145199,-9.22893 -8.712952,-5.17192 -17.134375,-13.57719 -22.40514,-22.36218 -2.343392,-3.90583 -5.449343,-10.38749 -5.130406,-10.70643 0.295393,-0.29539 3.212601,-0.65202 4.609357,-0.56348 1.989986,0.12613 2.476868,0.57805 4.901356,4.54935 2.353142,3.85443 2.614527,4.39319 3.863976,7.96441 2.061652,5.89271 4.98531,9.59318 9.807451,12.41327 2.443612,1.42908 8.260192,4.09821 10.911727,5.00721 2.531233,0.86776 4.117069,1.66032 7.629982,3.81326 2.780526,1.70408 8.361671,3.5063 10.885993,3.51523 0.572424,0.002 2.3076,-0.20871 3.85594,-0.46829 1.54834,-0.25957 4.454304,-0.61567 6.457694,-0.79134 3.33039,-0.292 3.91663,-0.27821 6.84118,0.161 5.93541,0.89139 9.65915,0.53991 13.50004,-1.27422 1.55808,-0.73593 2.31264,-1.34346 4.87798,-3.92747 4.87827,-4.91379 8.02415,-6.97976 11.81221,-7.75732 2.71697,-0.55771 4.754,-1.59878 6.45334,-3.29813 1.90822,-1.9082 2.84851,-3.84223 3.87933,-7.97911 0.93854,-3.76651 2.52892,-7.27749 4.45843,-9.84262 1.72527,-2.29358 2.15842,-2.4844 5.24297,-2.30972 1.42027,0.0804 2.80502,0.26542 3.07723,0.4111 0.6477,0.34664 0.52206,0.70104 -2.12592,5.99656 -3.49671,6.99288 -7.58911,12.69844 -12.87507,17.95019 -10.35836,10.29134 -23.38614,16.7825 -37.34082,18.60528 -3.44362,0.44981 -12.581611,0.51951 -16.043631,0.12238 z m -4.728691,-8.28993 c -3.974605,-1.11995 -5.496835,-1.73807 -7.950874,-3.22854 -2.782952,-1.69022 -4.075144,-2.29907 -8.841116,-4.16573 -3.556943,-1.39313 -7.930968,-3.54812 -9.826424,-4.84127 -1.557714,-1.06273 -4.266341,-3.8092 -5.392948,-5.46831 -1.159064,-1.70691 -2.168011,-3.85979 -3.03123,-6.46803 -0.430186,-1.29982 -1.511662,-3.6507 -2.403267,-5.22417 -0.891605,-1.57348 -1.691293,-3.13006 -1.777099,-3.4591 -0.165011,-0.63275 0.120924,-1.29397 0.633417,-1.4648 0.54937,-0.18312 2.102824,1.77325 4.119222,5.18761 1.404654,2.37849 2.369042,3.70245 3.341461,4.58731 3.671417,3.34082 4.166346,3.93848 4.751981,5.7383 1.484864,4.56339 3.298313,6.04185 11.575043,9.43681 6.784645,2.78294 7.91791,3.1231 11.319056,3.39747 2.962791,0.23901 3.236568,0.30933 5.797973,1.48898 3.70854,1.70796 4.864492,1.87683 9.093077,1.32833 2.3126,-0.29997 4.78948,-0.4261 7.77591,-0.39597 4.79267,0.0483 5.92536,-0.11768 8.49417,-1.24515 0.94196,-0.41343 2.34823,-0.86903 3.12504,-1.01245 2.66252,-0.49156 3.34908,-0.88365 7.14957,-4.08308 3.47543,-2.92576 6.47933,-5.06842 10.42901,-7.43891 1.88131,-1.12911 5.18022,-4.41725 6.23156,-6.21124 0.38598,-0.65862 1.12533,-2.25418 1.643,-3.54569 0.98122,-2.44798 3.32878,-6.25131 4.26201,-6.90497 0.69223,-0.48486 1.40024,-0.48474 1.58635,2.4e-4 0.08,0.20852 -0.58942,1.9157 -1.48765,3.79375 -1.35565,2.83451 -1.738,3.9327 -2.25044,6.46392 -0.73646,3.63775 -1.4154,5.21015 -3.01282,6.97748 -1.45179,1.60621 -2.8868,2.36244 -6.03521,3.18047 -4.0808,1.06028 -6.59018,2.71635 -11.89105,7.84749 -3.46443,3.3535 -4.97603,4.33799 -7.71956,5.02768 -2.52001,0.6335 -4.74088,0.71594 -7.81638,0.29016 -5.21492,-0.72197 -6.01359,-0.72213 -11.443428,-0.002 -6.891637,0.91379 -8.453676,0.97562 -10.448354,0.41355 z M 39.159704,79.243501 c -0.31605,-0.199913 -0.308293,-0.456493 0.06027,-1.991942 C 40.643273,71.321154 45.152288,62.702987 50.093227,56.469338 59.89561,44.102307 76.145,34.989351 92.261825,32.820419 c 4.301819,-0.578921 12.245225,-0.585409 16.643995,-0.01363 12.4981,1.624678 24.17743,6.609103 33.97626,14.500169 7.26905,5.853822 13.9801,14.594408 17.77183,23.146345 1.16784,2.633972 2.4875,6.387941 2.76432,7.863498 l 0.17165,0.914989 h -2.25042 c -1.23774,0 -2.5329,-0.107394 -2.87815,-0.23866 -0.41106,-0.156286 -0.99624,-0.893843 -1.6954,-2.13687 -0.58721,-1.044017 -2.00129,-3.41367 -3.14241,-5.265894 -2.27277,-3.689112 -2.53424,-4.230057 -3.88996,-8.047624 -1.15599,-3.255137 -2.50196,-5.568593 -4.32196,-7.428592 -1.88626,-1.927706 -3.78703,-3.119133 -7.78428,-4.879308 -1.82782,-0.804878 -4.33082,-2.143301 -5.56223,-2.974289 -1.23142,-0.830989 -3.22928,-2.050435 -4.43971,-2.709877 -1.21042,-0.659452 -3.28144,-2.011782 -4.60225,-3.005195 -4.11813,-3.09732 -6.6668,-4.046909 -11.48158,-4.277831 -2.57284,-0.123405 -3.12385,-0.06892 -5.47296,0.540757 -3.0805,0.799547 -5.73053,0.884431 -8.333799,0.266933 -2.347943,-0.556929 -8.039286,-0.792298 -9.881026,-0.408626 -2.099995,0.437472 -4.025415,1.507054 -6.537815,3.631814 -3.500924,2.960769 -5.107427,3.738803 -13.931129,6.746847 -8.35619,2.848665 -10.1015,4.42242 -12.229438,11.027386 -0.491272,1.524862 -1.344553,3.445808 -2.045959,4.605953 -1.677885,2.775299 -4.838134,8.877042 -5.626492,10.863503 -0.362122,0.91245 -1.022157,2.079817 -1.466756,2.594144 -0.707207,0.818107 -0.992887,0.958108 -2.282766,1.118671 -2.099477,0.261348 -4.150382,0.256158 -4.573638,-0.01156 z m 11.325948,-1.149408 c -0.21474,-0.21474 -0.390432,-0.604646 -0.390432,-0.866454 0,-0.952137 3.275982,-9.066875 4.453024,-11.03031 1.675121,-2.794281 1.920409,-3.313206 2.910034,-6.156324 1.708668,-4.908896 3.317588,-6.397701 9.05578,-8.379724 9.667478,-3.339241 13.218705,-4.987227 15.921295,-7.388444 2.190952,-1.946632 3.361243,-2.667171 5.207129,-3.205991 1.974201,-0.57627 6.176201,-0.518991 9.306854,0.126856 3.138374,0.647445 6.506414,0.551645 9.614134,-0.273458 1.80164,-0.478344 2.51435,-0.540813 4.85101,-0.425221 4.27297,0.211393 6.67784,1.141473 10.53611,4.074825 1.23365,0.937911 3.1185,2.199104 4.18856,2.80264 1.07005,0.603536 2.84112,1.681863 3.93571,2.39629 1.09459,0.714418 4.17312,2.358803 6.84119,3.654183 4.14998,2.014865 5.07103,2.567478 6.37345,3.823969 1.85393,1.788561 3.21464,3.845605 4.17884,6.317358 1.70995,4.383494 2.23932,5.530834 4.12982,8.950738 1.09671,1.983941 2.06456,3.876378 2.15078,4.205404 0.29045,1.108517 -0.74954,1.91819 -1.57931,1.229544 -0.56557,-0.469384 -1.29684,-1.68207 -3.45263,-5.725584 -2.435,-4.567253 -3.43287,-5.877018 -5.78348,-7.591225 -2.91287,-2.124224 -3.44982,-2.719843 -4.18399,-4.641155 -0.88545,-2.317217 -1.79708,-3.254969 -4.85856,-4.997824 -1.41475,-0.805377 -3.55948,-2.126377 -4.76607,-2.935533 -2.92283,-1.960097 -5.31373,-3.076005 -7.60731,-3.550569 -4.47206,-0.925303 -5.06525,-1.119208 -6.57352,-2.148745 -0.83479,-0.56982 -2.13779,-1.326849 -2.89554,-1.682276 l -1.37775,-0.646233 -8.20942,0.07071 c -7.69741,0.06629 -8.403369,0.110647 -11.319044,0.711644 -4.306714,0.887732 -5.288102,1.212244 -7.467076,2.469074 -1.045061,0.602784 -3.577281,1.812593 -5.62717,2.688458 -5.279189,2.255678 -6.435188,2.880859 -8.799886,4.759136 -1.151091,0.914312 -2.992803,2.18014 -4.092708,2.812955 -2.401762,1.381834 -3.968126,2.887215 -5.095458,4.897059 -0.46046,0.820947 -1.587293,2.556121 -2.504069,3.855947 -2.046269,2.901243 -2.196556,3.19139 -3.487573,6.733196 -1.631832,4.476784 -2.683813,5.964036 -3.582724,5.065126 z"
       id="path847"
       inkscape:connector-curvature="0"
       sodipodi:nodetypes="sssssssssssssssssssssssssscssssssssssssssscsssssssssssssssccccccscssscssssssssssscssssssssscccsssssssssssssssssssssssssscssssssssscc" />
    <text
       inkscape:export-ydpi="25.241035"
       inkscape:export-xdpi="25.241035"
       xml:space="preserve"
       style="font-style:normal;font-variant:normal;font-weight:normal;font-stretch:normal;font-size:38.4962px;line-height:1.25;font-family:'Tw Cen MT Condensed Extra Bold';-inkscape-font-specification:'Tw Cen MT Condensed Extra Bold, ';fill:#000000;fill-opacity:1;stroke:none;stroke-width:0.966718"
       id="text851"
       transform="translate(-3.5907738,-67.279762)"><textPath
         xlink:href="#path857"
         id="textPath861"><tspan
           style="font-style:normal;font-variant:normal;font-weight:normal;font-stretch:normal;font-family:'Tw Cen MT Condensed Extra Bold';-inkscape-font-specification:'Tw Cen MT Condensed Extra Bold, ';stroke-width:0.966718"
           id="tspan849"
           dx="0.050000001">CROSTA NERA</tspan></textPath></text>
    <path
       style="fill:none;stroke:none;stroke-width:0.264583px;stroke-linecap:butt;stroke-linejoin:miter;stroke-opacity:1"
       d="m 8.1264877,183.31845 c 55.0994283,-4.71391 110.5422323,-5.40932 165.7425623,-2.07887 8.76334,0.52873 17.52056,1.15874 26.26934,1.88988"
       id="path857"
       inkscape:connector-curvature="0"
       sodipodi:nodetypes="csc"
       inkscape:original-d="m 8.1264877,183.31845 c 95.8802223,-2.70857 95.9432223,-3.33852 165.7425623,-2.07887 55.23883,0.99688 17.51316,1.26018 26.26934,1.88988"
       inkscape:path-effect="#path-effect859" />
  </g>
</svg>
