<?xml version="1.0" encoding="UTF-8"?>
<svg width="201.44mm" height="150.94mm" version="1.1" viewBox="0 0 201.44 150.94" xmlns="http://www.w3.org/2000/svg" xmlns:cc="http://creativecommons.org/ns#" xmlns:dc="http://purl.org/dc/elements/1.1/" xmlns:rdf="http://www.w3.org/1999/02/22-rdf-syntax-ns#" xmlns:xlink="http://www.w3.org/1999/xlink">
 <metadata>
  <rdf:RDF>
   <cc:Work rdf:about="">
    <dc:format>image/svg+xml</dc:format>
    <dc:type rdf:resource="http://purl.org/dc/dcmitype/StillImage"/>
    <dc:title/>
   </cc:Work>
  </rdf:RDF>
 </metadata>
 <g transform="translate(-4.1127 -32.382)">
  <path d="m94.13 162.94c-10.108-1.1595-18.167-3.8994-27.145-9.2289-8.713-5.1719-17.134-13.577-22.405-22.362-2.3434-3.9058-5.4493-10.387-5.1304-10.706 0.29539-0.29539 3.2126-0.65202 4.6094-0.56348 1.99 0.12613 2.4769 0.57805 4.9014 4.5494 2.3531 3.8544 2.6145 4.3932 3.864 7.9644 2.0617 5.8927 4.9853 9.5932 9.8075 12.413 2.4436 1.4291 8.2602 4.0982 10.912 5.0072 2.5312 0.86776 4.1171 1.6603 7.63 3.8133 2.7805 1.7041 8.3617 3.5063 10.886 3.5152 0.57242 2e-3 2.3076-0.20871 3.8559-0.46829 1.5483-0.25957 4.4543-0.61567 6.4577-0.79134 3.3304-0.292 3.9166-0.27821 6.8412 0.161 5.9354 0.89139 9.6592 0.53991 13.5-1.2742 1.5581-0.73593 2.3126-1.3435 4.878-3.9275 4.8783-4.9138 8.0242-6.9798 11.812-7.7573 2.717-0.55771 4.754-1.5988 6.4533-3.2981 1.9082-1.9082 2.8485-3.8422 3.8793-7.9791 0.93854-3.7665 2.5289-7.2775 4.4584-9.8426 1.7253-2.2936 2.1584-2.4844 5.243-2.3097 1.4203 0.0804 2.805 0.26542 3.0772 0.4111 0.6477 0.34664 0.52206 0.70104-2.1259 5.9966-3.4967 6.9929-7.5891 12.698-12.875 17.95-10.358 10.291-23.386 16.782-37.341 18.605-3.4436 0.44981-12.582 0.51951-16.044 0.12238zm-4.7287-8.2899c-3.9746-1.12-5.4968-1.7381-7.9509-3.2285-2.783-1.6902-4.0751-2.2991-8.8411-4.1657-3.5569-1.3931-7.931-3.5481-9.8264-4.8413-1.5577-1.0627-4.2663-3.8092-5.3929-5.4683-1.1591-1.7069-2.168-3.8598-3.0312-6.468-0.43019-1.2998-1.5117-3.6507-2.4033-5.2242-0.8916-1.5735-1.6913-3.1301-1.7771-3.4591-0.16501-0.63275 0.12092-1.294 0.63342-1.4648 0.54937-0.18312 2.1028 1.7732 4.1192 5.1876 1.4047 2.3785 2.369 3.7024 3.3415 4.5873 3.6714 3.3408 4.1663 3.9385 4.752 5.7383 1.4849 4.5634 3.2983 6.0418 11.575 9.4368 6.7846 2.7829 7.9179 3.1231 11.319 3.3975 2.9628 0.23901 3.2366 0.30933 5.798 1.489 3.7085 1.708 4.8645 1.8768 9.0931 1.3283 2.3126-0.29997 4.7895-0.4261 7.7759-0.39597 4.7927 0.0483 5.9254-0.11768 8.4942-1.2452 0.94196-0.41343 2.3482-0.86903 3.125-1.0124 2.6625-0.49156 3.3491-0.88365 7.1496-4.0831 3.4754-2.9258 6.4793-5.0684 10.429-7.4389 1.8813-1.1291 5.1802-4.4172 6.2316-6.2112 0.38598-0.65862 1.1253-2.2542 1.643-3.5457 0.98122-2.448 3.3288-6.2513 4.262-6.905 0.69223-0.48486 1.4002-0.48474 1.5864 2.4e-4 0.08 0.20852-0.58942 1.9157-1.4876 3.7938-1.3556 2.8345-1.738 3.9327-2.2504 6.4639-0.73646 3.6378-1.4154 5.2102-3.0128 6.9775-1.4518 1.6062-2.8868 2.3624-6.0352 3.1805-4.0808 1.0603-6.5902 2.7164-11.891 7.8475-3.4644 3.3535-4.976 4.338-7.7196 5.0277-2.52 0.6335-4.7409 0.71594-7.8164 0.29016-5.2149-0.72197-6.0136-0.72213-11.443-2e-3 -6.8916 0.91379-8.4537 0.97562-10.448 0.41355zm-50.241-75.407c-0.31605-0.19991-0.30829-0.45649 0.06027-1.9919 1.4233-5.9304 5.9323-14.549 10.873-20.782 9.8024-12.367 26.052-21.48 42.169-23.649 4.3018-0.57892 12.245-0.58541 16.644-0.01363 12.498 1.6247 24.177 6.6091 33.976 14.5 7.269 5.8538 13.98 14.594 17.772 23.146 1.1678 2.634 2.4875 6.3879 2.7643 7.8635l0.17165 0.91499h-2.2504c-1.2377 0-2.5329-0.10739-2.8782-0.23866-0.41106-0.15629-0.99624-0.89384-1.6954-2.1369-0.58721-1.044-2.0013-3.4137-3.1424-5.2659-2.2728-3.6891-2.5342-4.2301-3.89-8.0476-1.156-3.2551-2.502-5.5686-4.322-7.4286-1.8863-1.9277-3.787-3.1191-7.7843-4.8793-1.8278-0.80488-4.3308-2.1433-5.5622-2.9743-1.2314-0.83099-3.2293-2.0504-4.4397-2.7099-1.2104-0.65945-3.2814-2.0118-4.6022-3.0052-4.1181-3.0973-6.6668-4.0469-11.482-4.2778-2.5728-0.1234-3.1238-0.06892-5.473 0.54076-3.0805 0.79955-5.7305 0.88443-8.3338 0.26693-2.3479-0.55693-8.0393-0.7923-9.881-0.40863-2.1 0.43747-4.0254 1.5071-6.5378 3.6318-3.5009 2.9608-5.1074 3.7388-13.931 6.7468-8.3562 2.8487-10.102 4.4224-12.229 11.027-0.49127 1.5249-1.3446 3.4458-2.046 4.606-1.6779 2.7753-4.8381 8.877-5.6265 10.864-0.36212 0.91245-1.0222 2.0798-1.4668 2.5941-0.70721 0.81811-0.99289 0.95811-2.2828 1.1187-2.0995 0.26135-4.1504 0.25616-4.5736-0.01156zm11.326-1.1494c-0.21474-0.21474-0.39043-0.60465-0.39043-0.86645 0-0.95214 3.276-9.0669 4.453-11.03 1.6751-2.7943 1.9204-3.3132 2.91-6.1563 1.7087-4.9089 3.3176-6.3977 9.0558-8.3797 9.6675-3.3392 13.219-4.9872 15.921-7.3884 2.191-1.9466 3.3612-2.6672 5.2071-3.206 1.9742-0.57627 6.1762-0.51899 9.3069 0.12686 3.1384 0.64744 6.5064 0.55164 9.6141-0.27346 1.8016-0.47834 2.5144-0.54081 4.851-0.42522 4.273 0.21139 6.6778 1.1415 10.536 4.0748 1.2336 0.93791 3.1185 2.1991 4.1886 2.8026 1.07 0.60354 2.8411 1.6819 3.9357 2.3963 1.0946 0.71442 4.1731 2.3588 6.8412 3.6542 4.15 2.0149 5.071 2.5675 6.3734 3.824 1.8539 1.7886 3.2146 3.8456 4.1788 6.3174 1.71 4.3835 2.2393 5.5308 4.1298 8.9507 1.0967 1.9839 2.0646 3.8764 2.1508 4.2054 0.29045 1.1085-0.74954 1.9182-1.5793 1.2295-0.56557-0.46938-1.2968-1.6821-3.4526-5.7256-2.435-4.5673-3.4329-5.877-5.7835-7.5912-2.9129-2.1242-3.4498-2.7198-4.184-4.6412-0.88545-2.3172-1.7971-3.255-4.8586-4.9978-1.4148-0.80538-3.5595-2.1264-4.7661-2.9355-2.9228-1.9601-5.3137-3.076-7.6073-3.5506-4.4721-0.9253-5.0652-1.1192-6.5735-2.1487-0.83479-0.56982-2.1378-1.3268-2.8955-1.6823l-1.3778-0.64623-8.2094 0.07071c-7.6974 0.06629-8.4034 0.11065-11.319 0.71164-4.3067 0.88773-5.2881 1.2122-7.4671 2.4691-1.0451 0.60278-3.5773 1.8126-5.6272 2.6885-5.2792 2.2557-6.4352 2.8809-8.7999 4.7591-1.1511 0.91431-2.9928 2.1801-4.0927 2.813-2.4018 1.3818-3.9681 2.8872-5.0955 4.8971-0.46046 0.82095-1.5873 2.5561-2.5041 3.8559-2.0463 2.9012-2.1966 3.1914-3.4876 6.7332-1.6318 4.4768-2.6838 5.964-3.5827 5.0651z" stroke-width=".24877"/>
  <text transform="translate(-3.5908 -67.28)" fill="#000000" font-family="'Tw Cen MT Condensed Extra Bold'" font-size="38.496px" stroke-width=".96672" style="line-height:1.25" xml:space="preserve"><textPath xlink:href="#path857"><tspan dx="0.050000001" font-family="'Tw Cen MT Condensed Extra Bold'" stroke-width=".96672">CROSTA NERA</tspan></textPath></text>
  <path id="path857" d="m8.1265 183.32c55.099-4.7139 110.54-5.4093 165.74-2.0789 8.7633 0.52873 17.521 1.1587 26.269 1.8899" fill="none"/>
 </g>
</svg>
