<?xml version="1.0" encoding="UTF-8" standalone="no"?>
<svg
   width="201.44mm"
   height="150.94mm"
   version="1.1"
   viewBox="0 0 201.44 150.94"
   id="svg1"
   sodipodi:docname="crosta.svg"
   inkscape:version="1.3.2 (091e20e, 2023-11-25, custom)"
   xmlns:inkscape="http://www.inkscape.org/namespaces/inkscape"
   xmlns:sodipodi="http://sodipodi.sourceforge.net/DTD/sodipodi-0.dtd"
   xmlns="http://www.w3.org/2000/svg"
   xmlns:svg="http://www.w3.org/2000/svg"
   xmlns:rdf="http://www.w3.org/1999/02/22-rdf-syntax-ns#"
   xmlns:cc="http://creativecommons.org/ns#"
   xmlns:dc="http://purl.org/dc/elements/1.1/">
  <defs
     id="defs1" />
  <sodipodi:namedview
     id="namedview1"
     pagecolor="#ffffff"
     bordercolor="#666666"
     borderopacity="1.0"
     inkscape:showpageshadow="2"
     inkscape:pageopacity="0.0"
     inkscape:pagecheckerboard="0"
     inkscape:deskcolor="#d1d1d1"
     inkscape:document-units="mm"
     inkscape:zoom="1.3410424"
     inkscape:cx="380.67402"
     inkscape:cy="285.22588"
     inkscape:window-width="1920"
     inkscape:window-height="1017"
     inkscape:window-x="1912"
     inkscape:window-y="-8"
     inkscape:window-maximized="1"
     inkscape:current-layer="svg1" />
  <metadata
     id="metadata1">
    <rdf:RDF>
      <cc:Work
         rdf:about="">
        <dc:format>image/svg+xml</dc:format>
        <dc:type
           rdf:resource="http://purl.org/dc/dcmitype/StillImage" />
        <dc:title />
      </cc:Work>
    </rdf:RDF>
  </metadata>
  <g
     transform="translate(-4.1127 -32.382)"
     id="g1">
    <path
       d="m94.13 162.94c-10.108-1.1595-18.167-3.8994-27.145-9.2289-8.713-5.1719-17.134-13.577-22.405-22.362-2.3434-3.9058-5.4493-10.387-5.1304-10.706 0.29539-0.29539 3.2126-0.65202 4.6094-0.56348 1.99 0.12613 2.4769 0.57805 4.9014 4.5494 2.3531 3.8544 2.6145 4.3932 3.864 7.9644 2.0617 5.8927 4.9853 9.5932 9.8075 12.413 2.4436 1.4291 8.2602 4.0982 10.912 5.0072 2.5312 0.86776 4.1171 1.6603 7.63 3.8133 2.7805 1.7041 8.3617 3.5063 10.886 3.5152 0.57242 2e-3 2.3076-0.20871 3.8559-0.46829 1.5483-0.25957 4.4543-0.61567 6.4577-0.79134 3.3304-0.292 3.9166-0.27821 6.8412 0.161 5.9354 0.89139 9.6592 0.53991 13.5-1.2742 1.5581-0.73593 2.3126-1.3435 4.878-3.9275 4.8783-4.9138 8.0242-6.9798 11.812-7.7573 2.717-0.55771 4.754-1.5988 6.4533-3.2981 1.9082-1.9082 2.8485-3.8422 3.8793-7.9791 0.93854-3.7665 2.5289-7.2775 4.4584-9.8426 1.7253-2.2936 2.1584-2.4844 5.243-2.3097 1.4203 0.0804 2.805 0.26542 3.0772 0.4111 0.6477 0.34664 0.52206 0.70104-2.1259 5.9966-3.4967 6.9929-7.5891 12.698-12.875 17.95-10.358 10.291-23.386 16.782-37.341 18.605-3.4436 0.44981-12.582 0.51951-16.044 0.12238zm-4.7287-8.2899c-3.9746-1.12-5.4968-1.7381-7.9509-3.2285-2.783-1.6902-4.0751-2.2991-8.8411-4.1657-3.5569-1.3931-7.931-3.5481-9.8264-4.8413-1.5577-1.0627-4.2663-3.8092-5.3929-5.4683-1.1591-1.7069-2.168-3.8598-3.0312-6.468-0.43019-1.2998-1.5117-3.6507-2.4033-5.2242-0.8916-1.5735-1.6913-3.1301-1.7771-3.4591-0.16501-0.63275 0.12092-1.294 0.63342-1.4648 0.54937-0.18312 2.1028 1.7732 4.1192 5.1876 1.4047 2.3785 2.369 3.7024 3.3415 4.5873 3.6714 3.3408 4.1663 3.9385 4.752 5.7383 1.4849 4.5634 3.2983 6.0418 11.575 9.4368 6.7846 2.7829 7.9179 3.1231 11.319 3.3975 2.9628 0.23901 3.2366 0.30933 5.798 1.489 3.7085 1.708 4.8645 1.8768 9.0931 1.3283 2.3126-0.29997 4.7895-0.4261 7.7759-0.39597 4.7927 0.0483 5.9254-0.11768 8.4942-1.2452 0.94196-0.41343 2.3482-0.86903 3.125-1.0124 2.6625-0.49156 3.3491-0.88365 7.1496-4.0831 3.4754-2.9258 6.4793-5.0684 10.429-7.4389 1.8813-1.1291 5.1802-4.4172 6.2316-6.2112 0.38598-0.65862 1.1253-2.2542 1.643-3.5457 0.98122-2.448 3.3288-6.2513 4.262-6.905 0.69223-0.48486 1.4002-0.48474 1.5864 2.4e-4 0.08 0.20852-0.58942 1.9157-1.4876 3.7938-1.3556 2.8345-1.738 3.9327-2.2504 6.4639-0.73646 3.6378-1.4154 5.2102-3.0128 6.9775-1.4518 1.6062-2.8868 2.3624-6.0352 3.1805-4.0808 1.0603-6.5902 2.7164-11.891 7.8475-3.4644 3.3535-4.976 4.338-7.7196 5.0277-2.52 0.6335-4.7409 0.71594-7.8164 0.29016-5.2149-0.72197-6.0136-0.72213-11.443-2e-3 -6.8916 0.91379-8.4537 0.97562-10.448 0.41355zm-50.241-75.407c-0.31605-0.19991-0.30829-0.45649 0.06027-1.9919 1.4233-5.9304 5.9323-14.549 10.873-20.782 9.8024-12.367 26.052-21.48 42.169-23.649 4.3018-0.57892 12.245-0.58541 16.644-0.01363 12.498 1.6247 24.177 6.6091 33.976 14.5 7.269 5.8538 13.98 14.594 17.772 23.146 1.1678 2.634 2.4875 6.3879 2.7643 7.8635l0.17165 0.91499h-2.2504c-1.2377 0-2.5329-0.10739-2.8782-0.23866-0.41106-0.15629-0.99624-0.89384-1.6954-2.1369-0.58721-1.044-2.0013-3.4137-3.1424-5.2659-2.2728-3.6891-2.5342-4.2301-3.89-8.0476-1.156-3.2551-2.502-5.5686-4.322-7.4286-1.8863-1.9277-3.787-3.1191-7.7843-4.8793-1.8278-0.80488-4.3308-2.1433-5.5622-2.9743-1.2314-0.83099-3.2293-2.0504-4.4397-2.7099-1.2104-0.65945-3.2814-2.0118-4.6022-3.0052-4.1181-3.0973-6.6668-4.0469-11.482-4.2778-2.5728-0.1234-3.1238-0.06892-5.473 0.54076-3.0805 0.79955-5.7305 0.88443-8.3338 0.26693-2.3479-0.55693-8.0393-0.7923-9.881-0.40863-2.1 0.43747-4.0254 1.5071-6.5378 3.6318-3.5009 2.9608-5.1074 3.7388-13.931 6.7468-8.3562 2.8487-10.102 4.4224-12.229 11.027-0.49127 1.5249-1.3446 3.4458-2.046 4.606-1.6779 2.7753-4.8381 8.877-5.6265 10.864-0.36212 0.91245-1.0222 2.0798-1.4668 2.5941-0.70721 0.81811-0.99289 0.95811-2.2828 1.1187-2.0995 0.26135-4.1504 0.25616-4.5736-0.01156zm11.326-1.1494c-0.21474-0.21474-0.39043-0.60465-0.39043-0.86645 0-0.95214 3.276-9.0669 4.453-11.03 1.6751-2.7943 1.9204-3.3132 2.91-6.1563 1.7087-4.9089 3.3176-6.3977 9.0558-8.3797 9.6675-3.3392 13.219-4.9872 15.921-7.3884 2.191-1.9466 3.3612-2.6672 5.2071-3.206 1.9742-0.57627 6.1762-0.51899 9.3069 0.12686 3.1384 0.64744 6.5064 0.55164 9.6141-0.27346 1.8016-0.47834 2.5144-0.54081 4.851-0.42522 4.273 0.21139 6.6778 1.1415 10.536 4.0748 1.2336 0.93791 3.1185 2.1991 4.1886 2.8026 1.07 0.60354 2.8411 1.6819 3.9357 2.3963 1.0946 0.71442 4.1731 2.3588 6.8412 3.6542 4.15 2.0149 5.071 2.5675 6.3734 3.824 1.8539 1.7886 3.2146 3.8456 4.1788 6.3174 1.71 4.3835 2.2393 5.5308 4.1298 8.9507 1.0967 1.9839 2.0646 3.8764 2.1508 4.2054 0.29045 1.1085-0.74954 1.9182-1.5793 1.2295-0.56557-0.46938-1.2968-1.6821-3.4526-5.7256-2.435-4.5673-3.4329-5.877-5.7835-7.5912-2.9129-2.1242-3.4498-2.7198-4.184-4.6412-0.88545-2.3172-1.7971-3.255-4.8586-4.9978-1.4148-0.80538-3.5595-2.1264-4.7661-2.9355-2.9228-1.9601-5.3137-3.076-7.6073-3.5506-4.4721-0.9253-5.0652-1.1192-6.5735-2.1487-0.83479-0.56982-2.1378-1.3268-2.8955-1.6823l-1.3778-0.64623-8.2094 0.07071c-7.6974 0.06629-8.4034 0.11065-11.319 0.71164-4.3067 0.88773-5.2881 1.2122-7.4671 2.4691-1.0451 0.60278-3.5773 1.8126-5.6272 2.6885-5.2792 2.2557-6.4352 2.8809-8.7999 4.7591-1.1511 0.91431-2.9928 2.1801-4.0927 2.813-2.4018 1.3818-3.9681 2.8872-5.0955 4.8971-0.46046 0.82095-1.5873 2.5561-2.5041 3.8559-2.0463 2.9012-2.1966 3.1914-3.4876 6.7332-1.6318 4.4768-2.6838 5.964-3.5827 5.0651z"
       stroke-width=".24877"
       id="path1" />
    <path
       d="m 23.52954,176.14707 0.463659,5.94054 q -1.753687,0.72135 -3.177918,0.83251 -4.928588,0.38468 -8.29007,-3.0672 -3.3442049,-3.47209 -3.815177,-9.50633 -0.4373312,-5.60322 2.370996,-9.4801 2.806864,-3.89561 7.529314,-4.2642 1.836509,-0.14334 3.411208,0.22396 l 0.465121,5.95929 q -1.672786,-0.41621 -3.115757,-0.30359 -2.211306,0.1726 -3.515051,2.31059 -1.303745,2.13799 -1.059483,5.26755 0.263276,3.37318 1.878565,5.22678 1.632566,1.8334 4.08749,1.64179 1.199353,-0.0936 2.767103,-0.78159 z m 2.584839,-19.3975 6.622602,-0.41026 q 4.014834,-0.24871 6.46903,1.67088 2.454195,1.91958 2.673851,5.4654 0.112733,1.8198 -0.663269,3.58167 -0.777165,1.74311 -2.412185,2.71071 l 5.239786,11.01281 -6.003492,0.37191 -5.303042,-11.1219 -0.0938,0.006 0.706619,11.40664 -5.684556,0.35214 z m 5.984404,4.48817 0.368418,5.9472 q 3.766294,-0.30864 3.607073,-2.87889 -0.108085,-1.74476 -1.036336,-2.44057 -0.90949,-0.69698 -2.939155,-0.62774 z m 23.352153,19.6458 q -4.544481,0.19916 -7.081646,-3.17041 -2.537988,-3.38835 -2.826031,-9.96095 -0.265822,-6.06556 1.970956,-9.55028 2.254733,-3.50431 6.536311,-3.69195 4.56326,-0.19998 7.115912,3.09365 2.571431,3.29281 2.847952,9.6025 0.276521,6.30969 -1.955319,9.90708 -2.213884,3.57778 -6.608135,3.77036 z m -1.11349,-20.68524 q -3.079731,0.13497 -2.762884,7.36482 0.204098,4.65716 1.042339,6.18206 0.857018,1.52408 2.340548,1.45906 1.596202,-0.07 2.372943,-1.66563 0.79552,-1.5965 0.596359,-6.14098 -0.321785,-7.34253 -3.589305,-7.19933 z m 14.446978,19.07487 -0.157503,-5.84371 q 2.748308,1.50544 4.589733,1.45581 1.071033,-0.0289 1.675405,-0.62807 0.603866,-0.618 0.577531,-1.59508 -0.02026,-0.7516 -0.545314,-1.39558 -0.506267,-0.64449 -1.752942,-1.55107 -3.010811,-2.17529 -4.397068,-4.07471 -1.367973,-1.91872 -1.432291,-4.30505 -0.08761,-3.25068 1.9053,-5.354 1.992913,-2.10332 5.243592,-2.19093 2.405127,-0.0648 4.800527,0.90482 l 0.151426,5.61822 q -2.574134,-1.32209 -4.152498,-1.27955 -1.052243,0.0284 -1.658134,0.57119 -0.587608,0.52354 -0.563299,1.42546 0.04254,1.57837 2.933015,3.47485 1.722504,1.1194 3.508416,3.19609 1.804196,2.05738 1.879149,4.83831 0.08761,3.25068 -2.128248,5.45402 -2.216369,2.18456 -5.711318,2.27876 -2.386337,0.0643 -4.765479,-0.99978 z m 14.662204,-25.0075 13.588988,-0.17696 0.07465,5.73256 -3.928214,0.0512 0.252092,19.35914 -5.770151,0.0751 -0.252092,-19.35914 -3.890623,0.0507 z m 34.310482,24.93447 -5.921,-0.0137 -0.94892,-4.19391 -6.01499,-0.0139 -1.00594,4.18938 -5.80822,-0.0135 6.71222,-25.07834 6.39092,0.0148 z m -7.94969,-8.7214 q -1.2652,-5.60441 -1.89257,-10.66224 l -0.0752,-1.7e-4 q -0.68875,5.20515 -1.92318,10.6534 z m 21.01037,-16.15476 5.74928,0.17182 6.80119,14.68332 -0.12581,-2.71172 0.35151,-11.76159 5.69291,0.17014 -0.74963,25.08263 -5.84322,-0.17463 -6.65762,-14.45337 0.0571,3.12338 -0.33242,11.12279 -5.69291,-0.17014 z m 24.29825,0.81143 11.50953,0.54602 -0.25296,5.33231 -5.82049,-0.27613 -0.21912,4.61884 5.05068,0.23961 -0.24673,5.20088 -5.05068,-0.2396 -0.21645,4.56251 5.85804,0.2779 -0.25386,5.35109 -11.54709,-0.5478 z m 16.42593,0.81053 6.62211,0.41824 q 4.01453,0.25356 6.21037,2.46402 2.19585,2.21046 1.97192,5.75601 -0.11493,1.81967 -1.10445,3.4711 -0.98833,1.63266 -2.73118,2.38897 l 3.82653,11.57994 -6.00304,-0.37914 -3.8757,-11.69606 -0.0938,-0.006 -0.72038,11.40577 -5.68412,-0.359 z m 5.37844,5.19895 -0.37559,5.94676 q 3.7754,0.16312 3.93772,-2.40694 0.11019,-1.74463 -0.72411,-2.5507 -0.81554,-0.80488 -2.83802,-0.98912 z m 30.12131,22.54017 -5.90176,-0.4771 -0.61777,-4.25532 -5.99544,-0.48467 -1.33075,4.0978 -5.78935,-0.46801 8.65445,-24.47607 6.37016,0.51497 z m -7.2427,-9.31685 q -0.82268,-5.68624 -1.05227,-10.77766 l -0.0749,-0.006 q -1.09403,5.13528 -2.75109,10.4702 z"
       id="text1"
       style="font-size:38.496px;line-height:1.25;font-family:'Tw Cen MT Condensed Extra Bold';stroke-width:0.96672"
       transform="translate(-3.5908 -67.28)"
       aria-label="CROSTA NERA" />
    <path
       id="path857"
       d="m8.1265 183.32c55.099-4.7139 110.54-5.4093 165.74-2.0789 8.7633 0.52873 17.521 1.1587 26.269 1.8899"
       fill="none" />
  </g>
</svg>
